<?xml version="1.0" standalone="no"?>
<!DOCTYPE svg PUBLIC "-//W3C//DTD SVG 20010904//EN"
 "http://www.w3.org/TR/2001/REC-SVG-20010904/DTD/svg10.dtd">
<svg version="1.0" xmlns="http://www.w3.org/2000/svg"
 width="200.000000pt" height="200.000000pt" viewBox="0 0 200.000000 200.000000"
 preserveAspectRatio="xMidYMid meet">
<metadata>
Created by potrace 1.14, written by Peter Selinger 2001-2017
</metadata>
<g transform="translate(0.000000,200.000000) scale(0.100000,-0.100000)"
fill="#000000" stroke="none">
<path d="M802 1848 c-31 -56 -80 -106 -146 -151 -36 -24 -42 -25 -57 -11 -9 8
-22 35 -28 60 -6 24 -16 45 -21 45 -39 5 -57 4 -69 -5 -24 -19 -92 -15 -113 6
-23 23 -60 20 -106 -7 -40 -24 -69 -70 -83 -132 -12 -56 -6 -81 16 -63 8 7 15
9 15 5 0 -4 11 0 25 9 14 9 25 14 25 10 0 -4 6 -1 13 5 21 17 52 -21 38 -46
-7 -14 -6 -27 5 -49 14 -26 14 -30 -2 -39 -53 -31 -99 -74 -108 -102 -6 -18
-18 -41 -26 -51 -16 -19 -26 -37 -67 -109 -36 -66 -36 -122 3 -213 30 -72 30
-77 16 -108 -9 -19 -23 -32 -34 -32 -10 0 -18 -3 -19 -7 0 -5 -2 -16 -4 -25
-2 -12 10 -22 43 -34 26 -9 56 -20 67 -25 20 -10 46 -8 78 6 31 13 44 -1 51
-62 7 -59 10 -79 22 -145 5 -27 0 -58 -15 -106 l-22 -68 19 -52 c22 -57 20
-64 -41 -129 -26 -28 -29 -35 -20 -60 6 -15 11 -39 12 -53 0 -22 -4 -26 -31
-28 -35 -3 -74 -21 -48 -23 8 0 35 -3 60 -6 94 -12 416 -8 510 7 3 0 -3 5 -12
11 -10 5 -66 12 -125 16 -60 3 -114 10 -120 15 -31 25 -54 81 -60 143 -6 73
-10 66 77 136 25 19 59 44 76 53 60 35 67 73 39 206 -7 36 -16 72 -19 80 -5
12 6 15 65 15 65 1 73 3 95 28 29 34 33 62 6 48 -28 -15 -123 -7 -137 12 -7
10 -23 17 -36 17 -25 0 -51 13 -50 24 0 3 -2 13 -6 22 -3 9 1 39 10 68 11 34
13 64 8 91 -4 22 -6 64 -5 94 1 29 -2 66 -6 82 -5 16 -5 31 -1 34 13 7 5 48
-17 92 l-21 40 42 58 c23 31 65 80 92 109 28 28 66 77 85 109 46 77 54 73 64
-33 2 -19 6 -42 9 -50 13 -36 17 -70 7 -70 -5 0 -10 -7 -10 -15 0 -8 6 -15 13
-15 7 0 13 -14 13 -32 1 -18 4 -42 7 -53 3 -11 6 -24 7 -30 2 -8 13 35 24 95
4 19 46 26 47 8 1 -17 1 -589 0 -605 -1 -9 -19 -13 -56 -13 -42 0 -55 -3 -55
-15 0 -13 21 -15 130 -15 109 0 130 2 130 15 0 12 -13 15 -59 15 l-59 0 0 305
c0 168 4 305 7 305 4 0 17 -33 30 -72 12 -40 25 -80 28 -88 3 -8 40 -118 83
-245 49 -149 81 -231 91 -233 11 -2 42 81 123 328 60 181 111 330 113 330 1 0
3 -142 3 -315 l0 -315 -58 0 c-46 0 -59 -3 -59 -15 0 -12 16 -15 79 -15 l78 0
0 -286 c0 -266 1 -285 17 -282 17 3 18 23 18 256 0 138 2 252 5 252 3 0 39
-52 80 -115 41 -63 78 -114 81 -115 4 0 42 52 85 115 43 63 80 113 82 110 3
-2 5 -117 5 -255 l0 -250 34 0 c19 0 33 5 33 13 1 21 2 561 1 580 -1 22 -71
25 -71 2 0 -8 -32 -62 -72 -120 -56 -82 -75 -102 -84 -93 -16 18 -124 177
-124 183 0 3 25 5 55 5 42 0 55 3 55 15 0 12 -13 15 -55 15 l-54 0 -3 138 c-2
75 -2 217 0 315 l3 177 54 0 c43 0 55 3 55 15 0 13 -19 15 -132 13 l-133 -3
-80 -237 c-43 -131 -81 -235 -84 -233 -2 3 -39 109 -81 237 l-77 233 -89 3
c-114 3 -117 4 -103 39 6 15 11 40 11 55 0 18 4 25 12 22 14 -5 56 56 56 82 0
8 8 18 18 21 25 9 32 23 32 66 0 25 -4 37 -14 37 -7 0 -19 7 -26 14 -6 8 -36
20 -66 26 -29 6 -56 16 -59 21 -12 18 -24 8 -53 -43z m-512 -668 c17 -21 33
-49 35 -61 3 -13 9 -27 15 -33 16 -16 12 -35 -12 -69 -30 -42 -43 -68 -52
-101 -4 -18 -12 -26 -24 -24 -9 1 -23 -1 -30 -5 -21 -14 -31 36 -28 151 2 105
3 111 31 145 17 20 31 36 32 36 1 1 15 -17 33 -39z m220 -638 c0 -15 -62 -72
-72 -66 -4 3 1 24 12 47 10 23 22 51 25 62 6 19 7 19 20 -5 8 -14 14 -31 15
-38z m-126 -410 c-3 -40 -12 -52 -25 -32 -20 31 -21 60 -3 88 l18 27 6 -25 c4
-14 6 -40 4 -58z"/>
</g>
</svg>
